<svg xmlns="http://www.w3.org/2000/svg" version="1.1" xmlns:xlink="http://www.w3.org/1999/xlink" xmlns:svgjs="http://svgjs.dev/svgjs" width="1000" height="1000" viewBox="0 0 1000 1000"><rect width="1000" height="1000" fill="#1f0f53"></rect><g transform="matrix(0.7,0,0,0.7,150,281.25)"><svg viewBox="0 0 512 320" data-background-color="#1f0f53" preserveAspectRatio="xMidYMid meet" height="625" width="1000" xmlns="http://www.w3.org/2000/svg" xmlns:xlink="http://www.w3.org/1999/xlink"><defs></defs><g id="tight-bounds" transform="matrix(1,0,0,1,0,0)"><svg viewBox="0 0 512 320" height="320" width="512"><g><svg></svg></g><g><svg viewBox="0 0 512 320" height="320" width="512"><g><path d="M96 320v-320l320 0 0 320z" fill="#ffdb99" data-fill-palette-color="tertiary"></path></g><g transform="matrix(1,0,0,1,151.5779024001066,80)"><svg viewBox="0 0 208.84419519978675 160" height="160" width="208.84419519978675"><g><svg viewBox="0 0 230.4 176.5143626076596" height="160" width="208.84419519978675"><g transform="matrix(1,0,0,1,0,98.84287324595746)"><svg viewBox="0 0 230.4 77.67148936170213" height="77.67148936170213" width="230.4"><g><svg viewBox="0 0 230.4 77.67148936170213" height="77.67148936170213" width="230.4"><g><svg viewBox="0 0 230.4 77.67148936170213" height="77.67148936170213" width="230.4"><g transform="matrix(1,0,0,1,0,0)"><svg width="230.4" viewBox="2.5999999046325684 -35 105.73999786376953 35.650001525878906" height="77.67148936170213" data-palette-color="#1f0f53"><path d="M14.3-25L14.3-25Q18.6-25 21.18-23.75 23.75-22.5 24.88-19.68 26-16.85 26-12.2L26-12.2Q26-7.5 24.88-4.67 23.75-1.85 21.18-0.6 18.6 0.65 14.3 0.65L14.3 0.65Q10.05 0.65 7.48-0.6 4.9-1.85 3.75-4.67 2.6-7.5 2.6-12.2L2.6-12.2Q2.6-16.85 3.75-19.68 4.9-22.5 7.48-23.75 10.05-25 14.3-25ZM14.3-21.1L14.3-21.1Q11.8-21.1 10.35-20.3 8.9-19.5 8.3-17.57 7.7-15.65 7.7-12.2L7.7-12.2Q7.7-8.75 8.3-6.8 8.9-4.85 10.35-4.08 11.8-3.3 14.3-3.3L14.3-3.3Q16.8-3.3 18.28-4.08 19.75-4.85 20.35-6.8 20.95-8.75 20.95-12.2L20.95-12.2Q20.95-15.65 20.35-17.57 19.75-19.5 18.28-20.3 16.8-21.1 14.3-21.1ZM63.75-24.4L68.7-24.4 61.8-1.35Q61.65-0.75 61.15-0.38 60.65 0 60 0L60 0 55.8 0Q55.15 0 54.62-0.43 54.1-0.85 54-1.5L54-1.5 50.25-17.6Q50.05-18.55 49.87-19.5 49.7-20.45 49.45-21.5L49.45-21.5 48.85-21.5Q48.7-20.45 48.47-19.5 48.25-18.55 48.05-17.6L48.05-17.6 44.35-1.5Q44.2-0.85 43.7-0.43 43.2 0 42.45 0L42.45 0 38.35 0Q37.7 0 37.2-0.38 36.7-0.75 36.55-1.35L36.55-1.35 29.6-24.4 34.6-24.4 39.35-6.85Q39.55-5.9 39.75-4.98 39.95-4.05 40.1-3.1L40.1-3.1 40.75-3.1Q40.95-4.05 41.17-4.98 41.4-5.9 41.6-6.85L41.6-6.85 45.4-22.9Q45.5-23.55 45.97-23.98 46.45-24.4 47.2-24.4L47.2-24.4 51.2-24.4Q51.9-24.4 52.37-23.98 52.85-23.55 53-22.85L53-22.85 56.75-6.85Q56.95-5.9 57.15-4.98 57.35-4.05 57.55-3.1L57.55-3.1 58.2-3.1Q58.45-4.05 58.6-4.95 58.75-5.85 59-6.85L59-6.85 63.75-24.4ZM73.7-35L78.5-35 78.45-6.95Q78.45-5.4 79.32-4.6 80.2-3.8 81.75-3.8L81.75-3.8 84.05-3.8 84.6-0.25Q84.1 0 83.22 0.15 82.35 0.3 81.42 0.38 80.5 0.45 79.85 0.45L79.85 0.45Q77.05 0.45 75.37-1.15 73.7-2.75 73.7-5.8L73.7-5.8 73.7-35ZM97.14-25L97.14-25Q98.74-25 100.59-24.9 102.44-24.8 104.27-24.65 106.09-24.5 107.59-24.25L107.59-24.25 107.24-20.85Q104.89-20.95 102.57-21.03 100.24-21.1 97.94-21.1L97.94-21.1Q95.74-21.15 94.49-21 93.24-20.85 92.69-20.25 92.14-19.65 92.14-18.2L92.14-18.2Q92.14-16.45 93.02-15.9 93.89-15.35 95.64-14.95L95.64-14.95 102.59-13.35Q105.54-12.6 106.94-11.15 108.34-9.7 108.34-6.55L108.34-6.55Q108.34-3.55 107.22-2.02 106.09-0.5 103.74 0.03 101.39 0.55 97.79 0.55L97.79 0.55Q96.44 0.55 93.77 0.45 91.09 0.35 87.89-0.2L87.89-0.2 88.24-3.55Q89.39-3.5 90.74-3.45 92.09-3.4 93.62-3.4 95.14-3.4 96.69-3.4L96.69-3.4Q99.39-3.4 100.92-3.63 102.44-3.85 103.07-4.53 103.69-5.2 103.69-6.55L103.69-6.55Q103.69-8.2 102.67-8.78 101.64-9.35 99.89-9.75L99.89-9.75 93.04-11.35Q90.94-11.85 89.72-12.73 88.49-13.6 87.97-14.93 87.44-16.25 87.44-18.25L87.44-18.25Q87.44-21.05 88.44-22.53 89.44-24 91.57-24.53 93.69-25.05 97.14-25Z" opacity="1" transform="matrix(1,0,0,1,0,0)" fill="#1f0f53" class="undefined-text-0" data-fill-palette-color="quaternary" id="text-0"></path></svg></g></svg></g></svg></g></svg></g><g transform="matrix(1,0,0,1,74.94675063829786,0)"><svg viewBox="0 0 80.50649872340429 80.50649872340428" height="80.50649872340428" width="80.50649872340429"><g><svg></svg></g><g id="icon-0"><svg viewBox="0 0 80.50649872340429 80.50649872340428" height="80.50649872340428" width="80.50649872340429"><g><path d="M24.152 80.507c-13.339 0-24.152-10.813-24.152-24.152v-32.203c0-13.339 10.813-24.152 24.152-24.152h32.203c13.339 0 24.152 10.813 24.151 24.152v32.203c0 13.339-10.813 24.152-24.151 24.151z" fill="#ff5db2" data-fill-palette-color="accent"></path></g><g transform="matrix(1,0,0,1,23.700737361702146,27.213343195584315)"><svg viewBox="0 0 33.105024 26.079812332235647" height="26.079812332235647" width="33.105024"><g><svg xmlns="http://www.w3.org/2000/svg" viewBox="6.999999523162842 7.580043792724609 86 67.74995422363281" x="0" y="0" height="26.079812332235647" width="33.105024" class="icon-x-0" data-fill-palette-color="quaternary" id="x-0"><path d="M90.64 26.44l0 0-0.06 0A7 7 0 0 0 86 24.67H72.22a1 1 0 0 0 0 2H86a4.94 4.94 0 0 1 2.33 0.6L50 65.64 11.63 27.3A4.94 4.94 0 0 1 14 26.67H28.35a1 1 0 0 0 0-2H14a7 7 0 0 0-4.33 1.51 1 1 0 0 0-0.35 0.22 1 1 0 0 0-0.13 0.19A7 7 0 0 0 7 31.67V68.33A7 7 0 0 0 9.3 73.5l0 0 0.05 0A7 7 0 0 0 14 75.33H86a7 7 0 0 0 7-7V31.67A7 7 0 0 0 90.64 26.44ZM9 31.67a5 5 0 0 1 1.09-3.08L31.47 50 10.06 71.38a5 5 0 0 1-1.06-3Zm5 41.66a4.94 4.94 0 0 1-2.41-0.65l21.3-21.3L49.26 67.76a1 1 0 0 0 1.41 0L67 51.38 88.37 72.71a4.94 4.94 0 0 1-2.37 0.63Zm77-5a5 5 0 0 1-1.09 3.08L68.46 50 89.88 28.55A5 5 0 0 1 91 31.67ZM50.13 43.76A18.09 18.09 0 1 0 32 25.67 18.11 18.11 0 0 0 50.13 43.76Zm-1-34.13v3.22a1 1 0 0 0 2 0V9.63a16.09 16.09 0 0 1 15 15H63a1 1 0 0 0 0 2h3.22a16.09 16.09 0 0 1-15 15V38.49a1 1 0 0 0-2 0v3.22a16.09 16.09 0 0 1-15-15h3.22a1 1 0 0 0 0-2H34.09A16.09 16.09 0 0 1 49.13 9.63ZM44.31 21.24a1 1 0 0 1 1.41-1.41l4.41 4.41 7.81-7.81a1 1 0 0 1 1.41 1.41l-8.52 8.52a1 1 0 0 1-1.41 0Z" fill="#1f0f53" data-fill-palette-color="quaternary"></path></svg></g></svg></g></svg></g></svg></g><g></g></svg></g></svg></g></svg></g></svg><rect width="512" height="320" fill="none" stroke="none" visibility="hidden"></rect></g></svg></g></svg>